<svg width="22" height="22" viewBox="0 0 22 22" fill="none" xmlns="http://www.w3.org/2000/svg">
<path d="M17.5325 21.8536C17.6262 21.9473 17.7534 22 17.886 22H21.5C21.7761 22 22 21.7761 22 21.5V17.8858C22 17.7532 21.9473 17.626 21.8536 17.5322L15.6751 11.3538C15.4798 11.1585 15.4798 10.8419 15.6751 10.6467L21.8536 4.46821C21.9473 4.37444 22 4.24727 22 4.11466V0.5C22 0.223858 21.7761 0 21.5 0H17.8865C17.7538 0 17.6267 0.0526784 17.5329 0.146447L11.3539 6.32546C11.1586 6.52072 10.842 6.52072 10.6468 6.32546L4.46777 0.146446C4.37401 0.0526781 4.24683 0 4.11422 0H0.5C0.223858 0 0 0.223857 0 0.5V4.11398C0 4.24659 0.0526784 4.37377 0.146447 4.46754L6.32558 10.6467C6.52084 10.8419 6.52084 11.1585 6.32558 11.3538L0.146447 17.5329C0.0526783 17.6267 0 17.7538 0 17.8865V21.5C0 21.7761 0.223858 22 0.5 22H4.11466C4.24726 22 4.37444 21.9473 4.46821 21.8536L10.6468 15.675C10.842 15.4797 11.1586 15.4797 11.3539 15.675L17.5325 21.8536Z" fill="white"/>
</svg>
