<svg width="22" height="22" viewBox="0 0 22 22" fill="none" xmlns="http://www.w3.org/2000/svg">
<path fill-rule="evenodd" clip-rule="evenodd" d="M0 21.6098C0 21.9567 0.436417 22.1305 0.691655 21.8852L8.37279 14.5036L9.34524 13.5691C9.73767 13.192 9.95948 12.6713 9.95948 12.127V9.87349C9.95948 9.32928 9.73771 8.80857 9.34533 8.43148L0.691655 0.114828C0.436417 -0.130469 0 0.0432601 0 0.390163V6.2956C0 6.39887 0.0426867 6.49791 0.118669 6.57093L4.44073 10.7247C4.59896 10.8767 4.59896 11.1233 4.44073 11.2753L0.11867 15.4291C0.0426871 15.5021 0 15.6011 0 15.7044V21.6098ZM22 0.390173C22 0.0432701 21.5636 -0.130461 21.3083 0.114838L13.6272 7.49642L12.6548 8.43089C12.2623 8.80799 12.0405 9.32874 12.0405 9.87299V12.1265C12.0405 12.6707 12.2623 13.1914 12.6547 13.5685L21.3083 21.8852C21.5636 22.1305 22 21.9567 22 21.6098V15.7044C22 15.6011 21.9573 15.5021 21.8813 15.4291L17.5593 11.2753C17.401 11.1233 17.401 10.8767 17.5593 10.7247L21.8813 6.57094C21.9573 6.49791 22 6.39887 22 6.2956V0.390173Z" fill="white"/>
</svg>
