<svg width="27" height="26" viewBox="0 0 27 26" fill="none" xmlns="http://www.w3.org/2000/svg">
<path fill-rule="evenodd" clip-rule="evenodd" d="M13.5907 25.8584C13.3009 26.1483 12.8053 25.943 12.8053 25.5331V18.5555C12.8053 18.4335 12.8538 18.3165 12.9401 18.2302L17.8479 13.3224C18.0276 13.1427 18.0276 12.8514 17.8479 12.6717L12.9401 7.76388C12.8538 7.6776 12.8053 7.56058 12.8053 7.43856V0.460997C12.8053 0.0511141 13.3009 -0.154156 13.5907 0.135675L26.1273 12.6722C26.3069 12.8519 26.3069 13.1432 26.1273 13.3228L22.3134 17.1367C22.3133 17.1368 22.3131 17.1368 22.3129 17.1367C22.3128 17.1366 22.3126 17.1366 22.3125 17.1367L13.5907 25.8584ZM0.785397 25.8606C0.495566 26.1504 0 25.9452 0 25.5353V18.5577C0 18.4357 0.048472 18.3187 0.134753 18.2324L5.04366 13.3235C5.22333 13.1438 5.22333 12.8525 5.04366 12.6728L0.134753 7.76394C0.048472 7.67766 0 7.56063 0 7.43861V0.461049C0 0.0511659 0.495566 -0.154105 0.785397 0.135726L13.6472 12.9976V12.9976V12.9977L13.6475 12.9979C13.6477 12.9981 13.6477 12.9983 13.6475 12.9985L0.785397 25.8606Z" fill="white"/>
</svg>
