<svg width="303" height="40" viewBox="0 0 303 40" fill="none" xmlns="http://www.w3.org/2000/svg">
<path fill-rule="evenodd" clip-rule="evenodd" d="M101.84 39.1469C102.924 38.8526 103.72 37.8808 103.72 36.7274C103.72 35.3407 102.57 34.2166 101.151 34.2166C100.718 34.2166 100.309 34.3216 99.9506 34.5071C98.7049 34.8417 97.3951 35.0202 96.0437 35.0202C94.208 35.0202 92.4492 34.6909 90.8231 34.0881C90.8307 34.0113 90.8346 33.9331 90.8346 33.8535V29.3224C90.8346 29.1792 90.8225 29.0411 90.7996 28.9085L100.686 23.7642V30.158C100.686 31.4551 101.738 32.5066 103.035 32.5066C104.332 32.5066 105.383 31.4551 105.383 30.158V21.3202L105.432 21.2948V16.423L86.1018 27.031V31.2592C82.9874 28.5071 81.0236 24.4829 81.0236 20C81.0236 11.7046 87.7483 4.97981 96.0437 4.97981C97.6754 4.97981 99.2463 5.23999 100.717 5.72111V13.2032C100.717 13.306 100.723 13.4064 100.735 13.5044L90.6593 18.7063V12.0227C90.6593 10.7642 89.6391 9.74392 88.3806 9.74392C87.1221 9.74392 86.1018 10.7642 86.1018 12.0227V21.735L86.1019 21.7556V25.6952L105.432 15.2444L105.432 3.92056C105.432 3.75563 105.415 3.59582 105.384 3.44234V2.31055C102.596 0.835369 99.4175 0 96.0437 0C84.998 0 76.0437 8.95431 76.0437 20C76.0437 31.0457 84.998 40 96.0437 40C98.0594 40 100.005 39.7015 101.84 39.1469ZM86.1688 31.318C86.1929 31.3391 86.2172 31.3602 86.2415 31.3811V31.2802L86.1688 31.318Z" fill="white"/>
<path d="M287.789 6.61278L287.767 2.24218L296.601 2.19768C296.613 4.6115 294.666 6.57814 292.253 6.5903L287.789 6.61278Z" fill="white"/>
<path d="M302.561 7.95433H296.713V25.7049L296.713 25.7568L296.714 25.8075H286.453L286.453 8.00573H280.605V25.8076C280.605 29.0376 283.223 31.656 286.453 31.656H302.562L302.561 7.95433Z" fill="white"/>
<path d="M215.123 8.00573V13.5464H231.694V8.00573H215.123Z" fill="white"/>
<path d="M249.376 13.9055H238.859L238.86 31.656H233.011V8.00573L249.376 8.0058C252.606 8.0058 255.225 10.6242 255.225 13.8542V18.8305C255.225 22.0565 252.613 24.6725 249.389 24.6789V24.7449H240.514V23.5456C240.514 20.8961 242.662 18.7483 245.311 18.7483H249.377L249.376 13.9055Z" fill="white"/>
<path d="M187.594 8.25227H193.286V26.3816C195.016 27.3708 196.182 29.2341 196.182 31.3697H177.658C174.487 31.3697 171.916 28.799 171.916 25.6278V8.35225H177.658L177.658 25.6278H187.594L187.594 25.5778V8.25227Z" fill="white"/>
<path d="M135.152 8.35765V8.35217L151.08 8.35225V31.3697H145.388L145.387 14.0441H135.402V31.3697H129.71V14.0442C129.71 10.9845 132.124 8.48858 135.152 8.35765Z" fill="white"/>
<path d="M111.833 25.6278C111.833 25.7535 111.837 25.8783 111.845 26.002L111.846 26.1988L111.861 26.1987C112.148 29.1018 114.597 31.3697 117.575 31.3697H127.961V25.6278H117.546L117.486 13.7446H127.961V8.35225H117.226C114.251 8.35225 111.839 10.761 111.833 13.7345L111.784 13.7347L111.844 25.6278H111.833Z" fill="white"/>
<path d="M153.077 25.6408L153.018 13.945L153.032 13.945C153.123 10.8889 155.622 8.43186 158.703 8.41634L170.285 8.358L170.314 14.0604L158.722 14.1188L158.78 25.6121L170.362 25.5538L170.39 31.2562L158.808 31.3145C155.92 31.3291 153.522 29.193 153.132 26.4088L153.081 26.4091L153.078 25.6902L153.077 25.6408Z" fill="white"/>
<path d="M159.514 17.064L159.538 21.7329L164.362 21.7086C166.94 21.6956 169.02 19.5947 169.007 17.0162L159.514 17.064Z" fill="white"/>
<path fill-rule="evenodd" clip-rule="evenodd" d="M273.25 31.656V31.6525C276.385 31.5446 278.894 28.969 278.894 25.8076V13.8542C278.894 10.6242 276.274 8.0058 273.044 8.0058L262.785 8.00573L262.755 8.0058H262.579V8.00929C259.444 8.11782 256.936 10.6931 256.936 13.8542V25.8076C256.936 29.0376 259.554 31.656 262.784 31.656H273.25ZM262.784 25.8075L262.785 13.9055H273.044L273.045 25.8075H262.784Z" fill="white"/>
<path d="M226.411 31.8906L220.552 31.9201L220.463 14.3174L221.48 14.3122C224.155 14.2988 226.333 16.4556 226.347 19.1297L226.411 31.8906Z" fill="white"/>
<path d="M197.195 26.4453C197.489 29.4283 200.005 31.7586 203.066 31.7586H213.685V25.8589H203.019L202.957 13.649H213.685V8.10836H202.707C199.65 8.10836 197.172 10.5833 197.166 13.6384L197.098 13.6388L197.163 26.4455L197.195 26.4453Z" fill="white"/>
<path d="M5.79948 8.31546C2.59651 8.31546 0 10.912 0 14.1149V31.7677H5.79948V22.5072H10.3719C12.1576 22.5072 13.6052 21.0596 13.6052 19.2739V17.4565H5.79948V8.31546Z" fill="white"/>
<path d="M43.8529 31.6823V12.5929L40.1902 25.6304L32.7977 25.6306L28.8083 11.7267V31.6823H23.0466V8.54489H28.7964C30.9629 8.34109 33.0408 9.67996 33.6969 11.8364L36.5449 21.1409L39.7153 11.4487C40.311 9.62759 42.0215 8.47395 43.8529 8.51304H49.6146V31.6823H43.8529Z" fill="white"/>
<path d="M51.8551 8.63556V14.3972H64.2588V17.1198H60.2741C58.4884 17.1198 57.0409 18.5674 57.0409 20.3531V21.8337H64.2588V26.2407H51.8551V31.6166H69.4916V25.6701H69.4851C69.3864 23.868 68.1733 22.3627 66.5231 21.8316C68.177 21.7706 69.4991 20.4105 69.4991 18.7416V17.1198H69.4916V13.3944C69.4916 10.7158 67.2888 8.63556 64.6103 8.63556H51.8551Z" fill="white"/>
<path d="M15.0444 8.31546H20.8439V31.7677H15.0444V8.31546Z" fill="white"/>
<path fill-rule="evenodd" clip-rule="evenodd" d="M101.84 39.1469C102.924 38.8526 103.72 37.8808 103.72 36.7274C103.72 35.3407 102.57 34.2166 101.151 34.2166C100.718 34.2166 100.309 34.3216 99.9506 34.5071C98.7049 34.8417 97.3951 35.0202 96.0437 35.0202C94.208 35.0202 92.4492 34.6909 90.8231 34.0881C90.8307 34.0113 90.8346 33.9331 90.8346 33.8535V29.3224C90.8346 29.1792 90.8225 29.0411 90.7996 28.9085L100.686 23.7642V30.158C100.686 31.4551 101.738 32.5066 103.035 32.5066C104.332 32.5066 105.383 31.4551 105.383 30.158V21.3202L105.432 21.2948V16.423L86.1018 27.031V31.2592C82.9874 28.5071 81.0236 24.4829 81.0236 20C81.0236 11.7046 87.7483 4.97981 96.0437 4.97981C97.6754 4.97981 99.2463 5.23999 100.717 5.72111V13.2032C100.717 13.306 100.723 13.4064 100.735 13.5044L90.6593 18.7063V12.0227C90.6593 10.7642 89.6391 9.74392 88.3806 9.74392C87.1221 9.74392 86.1018 10.7642 86.1018 12.0227V21.735L86.1019 21.7556V25.6952L105.432 15.2444L105.432 3.92056C105.432 3.75563 105.415 3.59582 105.384 3.44234V2.31055C102.596 0.835369 99.4175 0 96.0437 0C84.998 0 76.0437 8.95431 76.0437 20C76.0437 31.0457 84.998 40 96.0437 40C98.0594 40 100.005 39.7015 101.84 39.1469ZM86.1688 31.318C86.1929 31.3391 86.2172 31.3602 86.2415 31.3811V31.2802L86.1688 31.318Z" fill="#45E9C4"/>
</svg>
