<svg width="22" height="22" viewBox="0 0 22 22" fill="none" xmlns="http://www.w3.org/2000/svg">
<path fill-rule="evenodd" clip-rule="evenodd" d="M1 0C0.447715 0 0 0.447715 0 1V9C0 9.55228 0.447715 10 1 10H9C9.55228 10 10 9.55228 10 9V1C10 0.447715 9.55228 0 9 0H1ZM12.9999 0C12.4477 0 11.9999 0.447715 11.9999 1V9C11.9999 9.55228 12.4477 10 12.9999 10H20.9999C21.5522 10 21.9999 9.55228 21.9999 9V1C21.9999 0.447715 21.5522 0 20.9999 0H12.9999ZM0 13C0 12.4477 0.447715 12 1 12H9C9.55228 12 10 12.4477 10 13V21C10 21.5523 9.55228 22 9 22H1C0.447715 22 0 21.5523 0 21V13ZM12.9999 12C12.4477 12 11.9999 12.4477 11.9999 13V21C11.9999 21.5523 12.4477 22 12.9999 22H20.9999C21.5522 22 21.9999 21.5523 21.9999 21V13C21.9999 12.4477 21.5522 12 20.9999 12H12.9999Z" fill="#07B891"/>
</svg>
