<svg width="172" height="47" viewBox="0 0 172 47" fill="none" xmlns="http://www.w3.org/2000/svg">
<path d="M5.09324 46.3652C2.28032 46.3652 0 44.0861 0 41.2747V35.909C0 35.5126 0.157559 35.1324 0.438016 34.8521L33.8167 1.49099C34.7719 0.536323 36.0674 0 37.4182 0H45.1164C47.9294 0 50.2097 2.27911 50.2097 5.09054V15.8882C50.2097 19.3561 54.4171 21.079 56.8515 18.608L74.0826 1.48105C75.0369 0.532467 76.3281 0 77.6741 0H85.6903C88.5032 0 90.7835 2.27911 90.7835 5.09054V15.9723C90.7835 19.2931 94.8007 20.9562 97.1501 18.608L114.276 1.49099C115.231 0.536324 116.527 0 117.878 0H121.549C124.362 0 126.643 2.27911 126.643 5.09054V8.41647C126.643 9.76657 126.106 11.0614 125.151 12.016L92.2753 44.8742C91.3201 45.8289 90.0246 46.3652 88.6738 46.3652H80.6659C77.853 46.3652 75.5726 44.0861 75.5726 41.2747V22.8731C75.5726 22.1876 74.7435 21.8444 74.2586 22.329L51.7015 44.8742C50.7463 45.8289 49.4508 46.3652 48.1 46.3652H40.4018C37.5888 46.3652 35.3085 44.0861 35.3085 41.2747V24.7992C35.3085 23.6695 33.942 23.1038 33.1428 23.9026L12.16 44.8742C11.2049 45.8289 9.90939 46.3652 8.55858 46.3652H5.09324Z" fill="white"/>
<path d="M118.174 44.8726C117.219 45.8283 115.923 46.3652 114.571 46.3652H110.434C107.621 46.3652 105.341 44.0861 105.341 41.2747V38.457C105.341 37.1077 105.877 35.8136 106.831 34.8591L140.184 1.49262C141.14 0.536959 142.436 0 143.788 0H161.297C164.11 0 166.391 2.27911 166.391 5.09054V22.7913C166.391 24.1406 165.855 25.4347 164.9 26.3892L153.635 37.6587C152.68 38.6143 151.384 39.1513 150.032 39.1513H143.953C141.14 39.1513 138.86 36.8722 138.86 34.0608V29.9891C138.86 27.1777 141.14 24.8985 143.953 24.8985H148.04C150.306 24.8985 152.143 23.0625 152.143 20.7977C152.143 17.1433 147.722 15.314 145.138 17.8992L118.174 44.8726Z" fill="white"/>
<path d="M172 40.1052C172 37.2938 169.72 35.0147 166.907 35.0147H165.737C162.924 35.0147 160.643 37.2938 160.643 40.1052V41.2747C160.643 44.0861 162.924 46.3652 165.737 46.3652H166.907C169.72 46.3652 172 44.0861 172 41.2747V40.1052Z" fill="white"/>
</svg>
